<svg width="16" height="13" viewBox="0 0 16 13" fill="none" xmlns="http://www.w3.org/2000/svg">
<g clip-path="url(#clip0_139_4775)">
<mask id="mask0_139_4775" style="mask-type:luminance" maskUnits="userSpaceOnUse" x="0" y="0" width="16" height="13">
<path d="M16 0.5H0V12.5H16V0.5Z" fill="white"/>
</mask>
<g mask="url(#mask0_139_4775)">
<path d="M1.9998 0.5L13.9998 12.5M11.3748 10.0669C10.3603 10.6134 9.21375 10.9999 7.9998 10.9999C5.35181 10.9999 3.02456 9.16085 1.68998 7.83411C1.3377 7.48389 1.16159 7.3088 1.04948 6.96509C0.969522 6.71996 0.969497 6.27993 1.04948 6.03481C1.16163 5.6911 1.3381 5.51559 1.69108 5.16475C2.36374 4.49616 3.28839 3.69769 4.37902 3.07007M13.6248 8.47513C13.8745 8.25538 14.1034 8.03922 14.3086 7.8352L14.3108 7.83292C14.6623 7.48357 14.8385 7.30841 14.9504 6.96546C15.0304 6.72034 15.0302 6.28013 14.9503 6.035C14.8382 5.6914 14.6619 5.51581 14.3098 5.16583C12.9752 3.83906 10.6477 2 7.9998 2C7.74667 2 7.49648 2.01681 7.2498 2.04836M8.99198 7.625C8.72753 7.85838 8.3802 8 7.9998 8C7.17137 8 6.4998 7.32843 6.4998 6.5C6.4998 6.09538 6.66001 5.72831 6.92046 5.4585" stroke="#BBBBBB" stroke-width="1.6" stroke-linecap="round" stroke-linejoin="round"/>
</g>
</g>
<defs>
<clipPath id="clip0_139_4775">
<rect width="16" height="13" fill="white"/>
</clipPath>
</defs>
</svg>
