<svg width="16" height="13" viewBox="0 0 16 13" fill="none" xmlns="http://www.w3.org/2000/svg">
<g clip-path="url(#clip0_139_4482)">
<path d="M1.99989 0.5L13.9999 12.5M11.3749 10.0669C10.3604 10.6134 9.21384 10.9999 7.99989 10.9999C5.3519 10.9999 3.02465 9.16085 1.69007 7.83411C1.33779 7.48389 1.16168 7.3088 1.04957 6.96509C0.969614 6.71996 0.969589 6.27993 1.04957 6.03481C1.16172 5.6911 1.33819 5.51559 1.69117 5.16475C2.36383 4.49616 3.28848 3.69769 4.37911 3.07007M13.6249 8.47513C13.8746 8.25538 14.1035 8.03922 14.3087 7.8352L14.3109 7.83292C14.6624 7.48357 14.8386 7.30841 14.9505 6.96546C15.0305 6.72034 15.0303 6.28013 14.9504 6.035C14.8383 5.6914 14.662 5.51581 14.3099 5.16583C12.9753 3.83906 10.6478 2 7.99989 2C7.74676 2 7.49657 2.01681 7.24989 2.04836M8.99207 7.625C8.72762 7.85838 8.38029 8 7.99989 8C7.17146 8 6.49989 7.32843 6.49989 6.5C6.49989 6.09538 6.6601 5.72831 6.92055 5.4585" stroke="#BBBBBB" stroke-width="1.2" stroke-linecap="round" stroke-linejoin="round"/>
</g>
<defs>
<clipPath id="clip0_139_4482">
<rect width="16" height="12" fill="white" transform="translate(0 0.5)"/>
</clipPath>
</defs>
</svg>
