<svg width="12" height="12" viewBox="0 0 12 12" fill="none" xmlns="http://www.w3.org/2000/svg">
<g clip-path="url(#clip0_139_8212)">
<path d="M7.05709 6.90715H11.8C11.9381 6.90715 12.05 6.79522 12.05 6.65715V5.34287C12.05 5.2048 11.9381 5.09287 11.8 5.09287H7.05709C6.97425 5.09287 7 5.09287 6.90709 5.09287C7 5.09287 6.79516 5.09287 6.65709 5.09287H5.34281C5.20474 5.09287 5.5 5.0932 5.09281 5.09287C5 5.09277 5.02565 5.09287 4.94281 5.09287H0.199951C0.0618801 5.09287 -0.0500488 5.2048 -0.0500488 5.34287V6.65715C-0.0500488 6.79522 0.0618799 6.90715 0.199951 6.90715H4.94281C5.02565 6.90715 4.94281 6.90715 5.09281 6.90715C5.24281 6.90715 5.20474 6.90715 5.34281 6.90715H6.65709C6.79516 6.90715 6.5 6.90715 6.90709 6.90715C7 6.90715 6.97425 6.90715 7.05709 6.90715Z" fill="white" stroke="black" stroke-width="0.1"/>
</g>
<defs>
<clipPath id="clip0_139_8212">
<rect width="12" height="12" fill="white"/>
</clipPath>
</defs>
</svg>
