<svg width="96" height="96" viewBox="0 0 96 96" fill="none" xmlns="http://www.w3.org/2000/svg">
<path d="M17.7778 89C15.3639 89 13.2967 88.1412 11.5763 86.4237C9.85876 84.7033 9 82.6361 9 80.2222V18.7778C9 16.3639 9.85876 14.2967 11.5763 12.5763C13.2967 10.8588 15.3639 10 17.7778 10H79.2222C81.6361 10 83.7033 10.8588 85.4237 12.5763C87.1412 14.2967 88 16.3639 88 18.7778V80.2222C88 82.6361 87.1412 84.7033 85.4237 86.4237C83.7033 88.1412 81.6361 89 79.2222 89H17.7778ZM17.7778 75.2222C17.7778 77.9836 20.0164 80.2222 22.7778 80.2222H74.2222C76.9836 80.2222 79.2222 77.9836 79.2222 75.2222V32.5556C79.2222 29.7941 76.9836 27.5556 74.2222 27.5556H22.7778C20.0164 27.5556 17.7778 29.7941 17.7778 32.5556V75.2222ZM48.5 71.4444C42.5019 71.4444 37.1445 69.8162 32.4279 66.5596C28.2858 63.704 25.1443 60.1013 23.0036 55.7515C22.4255 54.577 22.4255 53.2008 23.0036 52.0263C25.1443 47.6765 28.2858 44.0737 32.4279 41.2182C37.1445 37.9616 42.5019 36.3333 48.5 36.3333C54.4981 36.3333 59.857 37.9616 64.5765 41.2182C68.7161 44.0737 71.8561 47.6765 73.9965 52.0263C74.5744 53.2008 74.5744 54.577 73.9965 55.7515C71.8561 60.1013 68.7161 63.704 64.5765 66.5596C59.857 69.8162 54.4981 71.4444 48.5 71.4444ZM48.5 64.8611C52.5963 64.8611 56.3269 63.8912 59.6917 61.9513C62.2541 60.4762 64.3924 58.5658 66.1064 56.2202C67.1218 54.8306 67.1218 52.9472 66.1065 51.5575C64.3925 49.2112 62.2542 47.2995 59.6917 45.8221C56.3269 43.8851 52.5963 42.9167 48.5 42.9167C44.4037 42.9167 40.6731 43.8851 37.3083 45.8221C34.7458 47.2995 32.6075 49.2112 30.8935 51.5575C29.8782 52.9472 29.8782 54.8306 30.8936 56.2202C32.6076 58.5658 34.7459 60.4762 37.3083 61.9513C40.6731 63.8912 44.4037 64.8611 48.5 64.8611ZM48.5 60.4722C46.6713 60.4722 45.1176 59.8314 43.839 58.5499C42.5574 57.2713 41.9167 55.7176 41.9167 53.8889C41.9167 52.0602 42.5574 50.5065 43.839 49.2279C45.1176 47.9463 46.6713 47.3056 48.5 47.3056C50.3287 47.3056 51.8824 47.9463 53.161 49.2279C54.4426 50.5065 55.0833 52.0602 55.0833 53.8889C55.0833 55.7176 54.4426 57.2713 53.161 58.5499C51.8824 59.8314 50.3287 60.4722 48.5 60.4722Z" fill="#BBBBBB"/>
</svg>
